<?xml version="1.0" encoding="utf-8"?>
<!-- Generator: Adobe Illustrator 26.0.2, SVG Export Plug-In . SVG Version: 6.00 Build 0)  -->
<svg version="1.1" id="Capa_1" focusable="false" xmlns="http://www.w3.org/2000/svg" xmlns:xlink="http://www.w3.org/1999/xlink"
	 x="0px" y="0px" viewBox="0 0 640 512" style="enable-background:new 0 0 640 512;" xml:space="preserve">


<path d="M224,255.9c70.7,0,128-57.3,128-128C352,57.3,294.7,0,224,0S96,57.3,96,128C96,198.6,153.3,255.9,224,255.9
	L224,255.9z M351.8,367.1V294c-12.2-3.6-24.9-6.2-38.2-6.2h-16.7c-22.2,10.2-46.9,16-72.9,16s-50.6-5.8-72.9-16h-16.7
	C60.2,287.9,0,348.1,0,422.3v41.6c0,26.5,21.5,48,48,48h352c15.5,0,29.1-7.5,37.9-18.9l-58-58C361.8,416.9,351.8,392.8,351.8,367.1
	L351.8,367.1z"/>

<path d="M630.6,364.9l-90.3-90.2c-12-12-28.3-18.7-45.3-18.7h-79.3c-17.7,0-32,14.3-32,32v79.2c0,17,6.7,33.2,18.7,45.2
	l90.3,90.2c12.5,12.5,32.8,12.5,45.3,0l92.5-92.5C643.1,397.6,643.1,377.4,630.6,364.9L630.6,364.9z"/>

<circle class="st0" cx="447.8" cy="319.9" r="24"/>
</svg>
